<?xml version="1.0" encoding="utf-8"?>
<!-- Generator: Adobe Illustrator 17.1.0, SVG Export Plug-In . SVG Version: 6.00 Build 0)  -->
<!DOCTYPE svg PUBLIC "-//W3C//DTD SVG 1.1//EN" "http://www.w3.org/Graphics/SVG/1.1/DTD/svg11.dtd">
<svg version="1.1" id="Layer_1" xmlns="http://www.w3.org/2000/svg" xmlns:xlink="http://www.w3.org/1999/xlink" x="0px" y="0px"
	 viewBox="0 0 400 100" enable-background="new 0 0 400 100" xml:space="preserve">
<path fill="#8B0860" d="M394,57.5c0,19-15.4,34.5-34.5,34.5h-320C20.4,92,5,76.6,5,57.5v-12C5,26.4,20.4,11,39.5,11h320
	c19,0,34.5,15.4,34.5,34.5V57.5z"/>
<path fill="#8B0860" d="M108.9-30.6C98-30.6,89.5-37.7,87-48.8c-1.3-5.8,3.9-4.2,6.2-5.5c3.1-1.7,2.8,1.5,3.3,3.2
	c1.7,6.7,5.4,10.3,11.4,10.8c5.7,0.5,11-2.6,13.3-7.8c2.3-5.5,0.8-11.3-4.3-15.6c-2.7-2.3-5.8-3.9-9.1-5.1
	c-4.4-1.6-8.4-4.1-11.5-7.6C92-81,90.9-89,93.7-94.6c2.9-6.1,9.7-10.1,16.2-9.7c7,0.4,12.8,4.9,15.1,11.2c0.8,2.1,0.3,3.3-1.8,3.5
	c-2.3,0.2-4.3,4.1-6.8,0.6c-0.5-0.7-0.7-1.5-1.2-2.2c-2.5-3.7-6.9-4.6-10.4-2.1c-3.6,2.6-4.2,7.5-1.1,10.9c2.7,2.9,6.3,4.2,9.8,5.8
	c9.9,4.4,17.7,10.8,18.1,22.8C132-40.7,122.1-30.6,108.9-30.6z"/>
<g>
	<path fill="#FFFFFF" d="M59.4,34.7v6.7c-3.3-2.8-6.7-4.1-10.2-4.1c-3.9,0-7.1,1.4-9.8,4.2c-2.7,2.8-4,6.2-4,10.2c0,4,1.3,7.3,4,10
		c2.7,2.7,5.9,4.1,9.8,4.1c2,0,3.7-0.3,5.1-1c0.8-0.3,1.6-0.8,2.4-1.3c0.8-0.6,1.7-1.2,2.6-2v6.9c-3.3,1.8-6.7,2.8-10.3,2.8
		c-5.4,0-10-1.9-13.8-5.6c-3.8-3.8-5.7-8.4-5.7-13.7c0-4.8,1.6-9.1,4.8-12.8c3.9-4.6,9-6.9,15.2-6.9C52.9,32,56.2,32.9,59.4,34.7z"
		/>
	<path fill="#FFFFFF" d="M73.3,47.5h16.3V32.7h5.7v37.7h-5.7V52.8H73.3v17.6h-5.7V32.7h5.7V47.5z"/>
	<path fill="#FFFFFF" d="M125.1,38.1h-15.1v9.1h14.7v5.3h-14.7v12.6h15.1v5.3h-20.8V32.7h20.8V38.1z"/>
	<path fill="#FFFFFF" d="M160.4,34.7v6.7c-3.3-2.8-6.7-4.1-10.2-4.1c-3.9,0-7.1,1.4-9.8,4.2c-2.7,2.8-4,6.2-4,10.2c0,4,1.3,7.3,4,10
		c2.7,2.7,5.9,4.1,9.8,4.1c2,0,3.7-0.3,5.1-1c0.8-0.3,1.6-0.8,2.4-1.3c0.8-0.6,1.7-1.2,2.6-2v6.9c-3.3,1.8-6.7,2.8-10.3,2.8
		c-5.4,0-10-1.9-13.8-5.6c-3.8-3.8-5.7-8.4-5.7-13.7c0-4.8,1.6-9.1,4.8-12.8c3.9-4.6,9-6.9,15.2-6.9C154,32,157.2,32.9,160.4,34.7z"
		/>
	<path fill="#FFFFFF" d="M174.3,47.8l14.7-15h7.6l-17,17.1l17.1,20.6h-7.6l-13.6-16.8l-1.2,1.2v15.6h-5.7V32.7h5.7V47.8z"/>
	<path fill="#FFFFFF" d="M222.9,32.7v37.7h-5.7V32.7H222.9z"/>
	<path fill="#FFFFFF" d="M242.3,38.1v32.4h-5.7V38.1H228v-5.3h23v5.3H242.3z"/>
	<path fill="#FFFFFF" d="M269.6,51.4c0-5.3,1.9-9.9,5.8-13.7c3.9-3.8,8.5-5.7,14-5.7c5.4,0,10,1.9,13.8,5.8
		c3.9,3.8,5.8,8.5,5.8,13.8c0,5.4-1.9,10-5.8,13.8c-3.9,3.8-8.6,5.7-14.1,5.7c-4.9,0-9.2-1.7-13.1-5.1
		C271.7,62.3,269.6,57.4,269.6,51.4z M275.4,51.5c0,4.2,1.4,7.6,4.2,10.3c2.8,2.7,6,4,9.6,4c4,0,7.3-1.4,10-4.1
		c2.7-2.8,4.1-6.1,4.1-10.1c0-4-1.3-7.4-4-10.1c-2.7-2.7-6-4.1-9.9-4.1c-3.9,0-7.2,1.4-9.9,4.1C276.7,44.2,275.4,47.5,275.4,51.5z"
		/>
	<path fill="#FFFFFF" d="M321.9,32.7v22.7c0,3.2,0.5,5.6,1.6,7.1c1.6,2.2,3.8,3.2,6.7,3.2c2.9,0,5.1-1.1,6.7-3.2
		c1.1-1.4,1.6-3.8,1.6-7.1V32.7h5.7V57c0,4-1.2,7.2-3.7,9.8c-2.8,2.9-6.2,4.3-10.3,4.3c-4.1,0-7.5-1.4-10.2-4.3
		c-2.5-2.6-3.7-5.8-3.7-9.8V32.7H321.9z"/>
	<path fill="#FFFFFF" d="M363.5,38.1v32.4h-5.7V38.1h-8.7v-5.3h23v5.3H363.5z"/>
</g>
</svg>
