<?xml version="1.0" encoding="utf-8"?>
<!-- Generator: Adobe Illustrator 16.0.0, SVG Export Plug-In . SVG Version: 6.00 Build 0)  -->
<!DOCTYPE svg PUBLIC "-//W3C//DTD SVG 1.1//EN" "http://www.w3.org/Graphics/SVG/1.1/DTD/svg11.dtd">
<svg version="1.1" id="Layer_1" xmlns="http://www.w3.org/2000/svg" xmlns:xlink="http://www.w3.org/1999/xlink" x="0px" y="0px"
	 width="182.25px" height="46.25px" viewBox="0 0 182.25 46.25" enable-background="new 0 0 182.25 46.25" xml:space="preserve">
<path fill="#F4F4F4" d="M14.603,32.008c-4.835,0-8.783,3.717-9.024,8.787h0.786h0.033h0.715h0.324h0.624h0.026h0.567
	c0.198-3.259,2.785-5.716,5.948-5.716s5.75,2.457,5.948,5.716h0.567h0.026h0.624h0.325h0.714h0.033h0.786
	C23.386,35.725,19.438,32.008,14.603,32.008"/>
<path fill="#F4F4F4" d="M23.506,15.903l-8.658-14.31L5.669,16.185l-3.822,6.062h3.424l1.812-3.315l0.161,0.703v0.004l0.254,0.015
	l0.124-0.002l6.664,10.906l6.999-11.124l0.46-0.743l2.119,3.557h3.495L23.506,15.903z M14.565,25.354l-4.59-7.83h0.751h7.61h1.039
	L14.565,25.354z M18.48,14.826h-7.609h-0.592v-0.212l4.658-7.724l4.438,7.936H18.48z"/>
<polygon fill="#F4F4F4" points="73.463,41.48 73.463,5.148 78.164,5.148 78.164,36.757 91.153,36.757 91.153,41.48 "/>
<rect x="123.021" y="5.148" fill="#F4F4F4" width="4.699" height="36.332"/>
<path fill="#F4F4F4" d="M144.252,22.838c-2.572-0.863-4.658-2.093-6.256-3.689c-1.598-1.598-2.395-3.577-2.395-5.938
	c0-2.316,0.828-4.307,2.486-5.972c1.656-1.665,3.666-2.498,6.027-2.498c2.332,0,4.33,0.825,5.996,2.475
	c0.938,0.908,1.725,2.354,2.361,4.337l-4.27,1.681c-0.514-1.393-0.984-2.3-1.408-2.725c-0.742-0.727-1.635-1.09-2.68-1.09
	c-1.059,0-1.961,0.367-2.701,1.102c-0.742,0.734-1.113,1.631-1.113,2.69s0.371,1.96,1.113,2.702
	c0.832,0.817,1.982,1.566,3.451,2.248c2.846,0.924,5.26,2.377,7.244,4.359c2.225,2.195,3.338,4.86,3.338,7.993
	c0,3.134-1.109,5.81-3.326,8.027c-2.219,2.218-4.887,3.326-8.006,3.326c-3.133,0-5.805-1.112-8.016-3.338
	c-1.771-1.771-2.891-4.216-3.359-7.334l4.562-1.658c0.289,2.68,0.992,4.579,2.113,5.7c1.301,1.302,2.867,1.953,4.699,1.953
	s3.398-0.651,4.701-1.953c1.301-1.303,1.953-2.876,1.953-4.724c0-1.831-0.652-3.398-1.953-4.7
	C147.574,24.571,146.053,23.58,144.252,22.838"/>
<path fill="#F4F4F4" d="M169.254,22.838c-2.574-0.863-4.66-2.093-6.256-3.689c-1.598-1.598-2.396-3.577-2.396-5.938
	c0-2.316,0.83-4.307,2.486-5.972c1.658-1.665,3.668-2.498,6.029-2.498c2.33,0,4.328,0.825,5.994,2.475
	c0.938,0.908,1.727,2.354,2.361,4.337l-4.27,1.681c-0.514-1.393-0.982-2.3-1.406-2.725c-0.742-0.727-1.635-1.09-2.68-1.09
	c-1.061,0-1.961,0.367-2.703,1.102c-0.74,0.734-1.111,1.631-1.111,2.69s0.371,1.96,1.111,2.702c0.834,0.817,1.984,1.566,3.453,2.248
	c2.846,0.924,5.26,2.377,7.242,4.359c2.227,2.195,3.338,4.86,3.338,7.993c0,3.134-1.109,5.81-3.326,8.027
	c-2.219,2.218-4.885,3.326-8.004,3.326c-3.135,0-5.807-1.112-8.016-3.338c-1.771-1.771-2.893-4.216-3.361-7.334l4.564-1.658
	c0.287,2.68,0.992,4.579,2.111,5.7c1.303,1.302,2.869,1.953,4.701,1.953c1.83,0,3.398-0.651,4.699-1.953
	c1.303-1.303,1.953-2.876,1.953-4.724c0-1.831-0.65-3.398-1.953-4.7C172.576,24.571,171.055,23.58,169.254,22.838"/>
<path fill="#F4F4F4" d="M54.38,1.344L39.92,41.133h5.019l4.655-12.479h9.628l4.677,12.479h4.996L54.38,1.344z M51.32,23.933
	l3.088-8.516l3.111,8.516H51.32z"/>
<polyline fill="#F4F4F4" points="103.285,45.172 117.73,5.383 112.713,5.383 103.22,31.429 93.751,5.383 88.755,5.383 
	103.285,45.172 "/>
</svg>
