<?xml version="1.0" encoding="utf-8"?>
<!-- Generator: Adobe Illustrator 17.1.0, SVG Export Plug-In . SVG Version: 6.00 Build 0)  -->
<!DOCTYPE svg PUBLIC "-//W3C//DTD SVG 1.1//EN" "http://www.w3.org/Graphics/SVG/1.1/DTD/svg11.dtd">
<svg version="1.1" id="Layer_1" xmlns="http://www.w3.org/2000/svg" xmlns:xlink="http://www.w3.org/1999/xlink" x="0px" y="0px"
	 viewBox="0 0 150 150" enable-background="new 0 0 150 150" xml:space="preserve">
<g>
	<circle fill="#E95E3F" cx="75" cy="75" r="53.4"/>
	<g>
		<g id="Captions_1_">
		</g>
		<g id="Your_Icon_1_">
			<g>
				<path fill="#FFFFFF" d="M88.3,48.3c-6.8,0-11.1,3.3-13.6,6.3c-2.5-3-6.8-6.3-13.6-6.3c-11.6,0-19.4,10.8-19.4,20.8
					c0,14.6,28.1,34.2,31.3,36.4c0.5,0.4,1.1,0.5,1.7,0.5s1.2-0.2,1.7-0.5c3.2-2.2,31.3-21.8,31.3-36.4
					C107.7,59.1,99.9,48.3,88.3,48.3z M74.7,84.7c0,0-8.7-6-8.7-9.9c0-2.3,1.8-5.2,4.8-5.2c3,0,4,2.6,4,2.6s1-2.6,4-2.6
					c3,0,4.8,2.8,4.8,5.2C83.5,78.8,74.7,84.7,74.7,84.7z"/>
			</g>
		</g>
	</g>
</g>
<g>
	<circle fill="#E95E3F" cx="523.3" cy="38" r="53.4"/>
	<g>
		<path fill="#FFFFFF" d="M523.6,42.9c-0.3-0.4-0.6-0.7-1.1-1c-0.4-0.2-1-0.4-1.6-0.4c-0.6,0-1.1,0.1-1.6,0.4
			c-0.4,0.2-0.8,0.6-1.1,1c-0.3,0.4-0.5,0.9-0.6,1.4c-0.1,0.5-0.2,1-0.2,1.6c0,0.5,0.1,1,0.2,1.5c0.1,0.5,0.3,0.9,0.6,1.3
			c0.3,0.4,0.6,0.7,1.1,1c0.4,0.2,1,0.4,1.6,0.4c0.6,0,1.1-0.1,1.6-0.4c0.4-0.2,0.8-0.6,1.1-1c0.3-0.4,0.5-0.8,0.6-1.3
			c0.1-0.5,0.2-1,0.2-1.5c0-0.5-0.1-1.1-0.2-1.6C524,43.8,523.9,43.3,523.6,42.9z"/>
		<path fill="#FFFFFF" d="M534.5,26.8c-1.1-2.9-3.1-5.2-5.7-7c-1.2-0.8-2-1.8-2-3.4c0-0.5-0.1-1.2-0.4-1.4c-1-0.7-0.3-1.3,0-1.9
			c0.3-0.5,0.8-0.8,1.1-1.3c0.7-1,0.6-3.6-0.3-3.9c-1.7-0.6-1.3-1.6-0.9-2.7c0.9-2.3,0.5-3.1-1.7-4.2c-0.2-0.1-0.4-0.5-0.5-0.8
			c-0.1-0.4-0.2-0.8-0.3-1.2c-0.2-0.1-0.3-0.1-0.5-0.2c-0.2,0.4-0.4,0.7-0.6,1.1c-0.2,0.3-0.2,0.7-0.5,0.9c-1.7,1.2-2.1,2.2-1.5,4.2
			c0.3,0.9,0.4,1.9,0.6,2.8c-3.1,0.9-3.2,1.3-1.6,3.9c0.4,0.6,1.2,1.2,1.2,1.8c0.1,1.3,0.9,1.4,1.8,1.5c0.6,0.1,1.3,0.1,1.9,0.2
			c0,0.1,0,0.3,0,0.4c-1.4-0.2-2.8-0.3-4.4-0.5c-0.1,0.2-0.3,0.6-0.2,0.9c0.1,1.9-0.9,2.9-2.3,4c-1.3,1-2.6,2.1-3.7,3.4
			c-1.4,1.7-2.7,3.5-2.7,5.8c0.1,13.3,0.2,26.7,0.3,40c0,3.7,1.4,5.5,4.9,6.7c3.7,1.3,7.5,1.2,11.3,0.5c4.5-0.8,6.3-2.9,6.4-7.4
			c0.4-13.1,0.6-26.2,0.8-39.3C535.1,28.8,534.8,27.8,534.5,26.8z M523.5,51.9c-0.8,0.3-1.6,0.5-2.6,0.5c-1,0-1.8-0.2-2.6-0.5
			s-1.4-0.8-1.9-1.4c-0.5-0.6-0.9-1.3-1.2-2.1c-0.3-0.8-0.4-1.6-0.4-2.6c0-0.9,0.1-1.8,0.4-2.6c0.3-0.8,0.7-1.5,1.2-2.1
			c0.5-0.6,1.2-1.1,1.9-1.4c0.8-0.3,1.6-0.5,2.6-0.5c1,0,1.8,0.2,2.6,0.5c0.8,0.3,1.4,0.8,1.9,1.4c0.5,0.6,0.9,1.3,1.2,2.1
			c0.3,0.8,0.4,1.7,0.4,2.6c0,0.9-0.1,1.8-0.4,2.6c-0.3,0.8-0.7,1.5-1.2,2.1C524.9,51.1,524.3,51.5,523.5,51.9z M531.1,55.2h-4.5
			c0-0.4,0.1-0.7,0.2-0.9c0.1-0.3,0.2-0.5,0.4-0.7c0.2-0.2,0.4-0.4,0.6-0.6c0.2-0.2,0.5-0.4,0.8-0.5c0.1-0.1,0.3-0.2,0.4-0.3
			c0.2-0.1,0.3-0.2,0.4-0.3c0.1-0.1,0.2-0.2,0.3-0.4c0.1-0.1,0.1-0.3,0.1-0.5c0-0.3-0.1-0.5-0.3-0.7c-0.2-0.2-0.4-0.2-0.7-0.2
			c-0.2,0-0.3,0-0.5,0.1c-0.1,0.1-0.2,0.2-0.3,0.3c-0.1,0.1-0.1,0.3-0.2,0.5c0,0.2,0,0.3,0,0.5h-1.2c0-0.4,0-0.7,0.1-1
			c0.1-0.3,0.2-0.6,0.4-0.8c0.2-0.2,0.4-0.4,0.7-0.5c0.3-0.1,0.6-0.2,1-0.2c0.3,0,0.5,0,0.8,0.1c0.3,0.1,0.5,0.2,0.7,0.4
			c0.2,0.2,0.3,0.4,0.5,0.6c0.1,0.2,0.2,0.5,0.2,0.8c0,0.3,0,0.6-0.1,0.8c-0.1,0.2-0.2,0.4-0.4,0.6c-0.2,0.2-0.3,0.3-0.6,0.5
			c-0.2,0.1-0.4,0.3-0.6,0.4c-0.2,0.1-0.4,0.3-0.6,0.4c-0.2,0.2-0.4,0.3-0.5,0.6h2.9V55.2z"/>
	</g>
</g>
<g>
	<circle fill="#E95E3F" cx="520.2" cy="166.1" r="53.4"/>
	<g>
		<path fill="#FFFFFF" d="M502.9,152.8h7.1c0.3,0,0.5-0.3,0.5-0.7c0-0.4-0.2-0.7-0.5-0.7h-7.1c-0.3,0-0.5,0.3-0.5,0.7
			C502.4,152.5,502.7,152.8,502.9,152.8z"/>
		<path fill="#FFFFFF" d="M502.9,163.9h7.1c0.3,0,0.5-0.3,0.5-0.7c0-0.4-0.2-0.7-0.5-0.7h-7.1c-0.3,0-0.5,0.3-0.5,0.7
			C502.4,163.6,502.7,163.9,502.9,163.9z"/>
		<path fill="#FFFFFF" d="M513.3,157h-10.4c-0.3,0-0.5,0.3-0.5,0.7c0,0.4,0.2,0.7,0.5,0.7h10.4c0.3,0,0.5-0.3,0.5-0.7
			C513.8,157.3,513.6,157,513.3,157z"/>
		<path fill="#FFFFFF" d="M502.9,147.8h10.4c0.3,0,0.5-0.3,0.5-0.7c0-0.4-0.2-0.7-0.5-0.7h-10.4c-0.3,0-0.5,0.3-0.5,0.7
			C502.4,147.6,502.7,147.8,502.9,147.8z"/>
		<path fill="#FFFFFF" d="M513.3,167.9h-10.4c-0.3,0-0.5,0.3-0.5,0.7c0,0.4,0.2,0.7,0.5,0.7h10.4c0.3,0,0.5-0.3,0.5-0.7
			C513.8,168.2,513.6,167.9,513.3,167.9z"/>
		<path fill="#FFFFFF" d="M545,137.1h-49.4v3.9h0c0,12.3,0,47.7,0,47.7c0,3.5,2.8,6.3,6.3,6.3h32.4c3.5,0,6.3-2.8,6.3-6.3V141h4.5
			V137.1z M536.4,171.8c-4.6-1.5-13.7-3.1-18.9,0c-3.8,2.3-12.7,1.9-17.9-0.6v-29.9h36.9V171.8z"/>
	</g>
</g>
<g>
	<circle fill="#E95E3F" cx="522.1" cy="290.9" r="53.4"/>
	<g id="Layer_1_2_">
		<g>
			<path fill="#FFFFFF" d="M542,274c4.1-0.2,7.2-3.8,7-7.9c-0.2-4.1-3.8-7.2-7.9-7c-4.1,0.2-7.2,3.8-7,7.9
				C534.3,271.1,537.9,274.2,542,274z"/>
			<path fill="#FFFFFF" d="M555.5,282.7c-0.7-1.6-2.6-2.2-4.1-1.5l-12.1,5.5l-1.7-10.5c-0.1-0.7-0.5-1.3-1-1.8
				c-0.3-0.7-0.8-1.2-1.5-1.5l-13.4-6.3c-0.8-0.4-1.7-0.4-2.5-0.1c-0.8,0.3-1.4,1-1.7,1.8l-4.4,12.5c-0.6,1.6,0.3,3.4,1.9,4
				c0.3,0.1,0.7,0.2,1,0.2c1.3,0,2.5-0.8,2.9-2.1l3.3-9.3l4.7,2.2L516.7,289c-0.2,0.1-0.3,0.3-0.5,0.5l-23.8,27.4
				c-1.1,1.3-1,3.3,0.3,4.4c0.6,0.5,1.3,0.8,2,0.8c0.9,0,1.7-0.4,2.3-1.1l20.3-23.3l9.5,7l-14.4,6.7c-1.6,0.7-2.2,2.6-1.5,4.1
				c0.5,1.1,1.6,1.8,2.8,1.8c0.4,0,0.9-0.1,1.3-0.3l19.2-9c1-0.5,1.7-1.4,1.8-2.5c0.1-1.1-0.4-2.2-1.3-2.8l-9.5-6.9l7.6-9.7l0.9,5.6
				c0.2,1,0.7,1.8,1.6,2.3c0.5,0.2,1,0.4,1.5,0.4c0.4,0,0.9-0.1,1.3-0.3l15.8-7.2C555.5,286.1,556.2,284.2,555.5,282.7z"/>
		</g>
	</g>
</g>
<g>
	<circle fill="#871E5E" cx="345.7" cy="-154.4" r="53.4"/>
	<g>
		<path fill="#FFFFFF" d="M341.9-160.1c0.7-0.2,1.1-0.9,0.9-1.6c-0.2-0.7-0.9-1.1-1.6-0.9c-0.7,0.2-1.1,0.9-0.9,1.6
			C340.5-160.3,341.2-159.9,341.9-160.1z"/>
		<path fill="#FFFFFF" d="M349.5-160.1c0.7,0.2,1.4-0.2,1.6-0.9c0.2-0.7-0.2-1.4-0.9-1.6c-0.7-0.2-1.4,0.2-1.6,0.9
			C348.4-161,348.8-160.3,349.5-160.1z"/>
		<path fill="#FFFFFF" d="M356.1-158.1c-0.5,0.5-0.5,1.3,0,1.8c0.5,0.5,1.3,0.5,1.8,0c0.5-0.5,0.5-1.3,0-1.8
			C357.4-158.6,356.6-158.6,356.1-158.1z"/>
		<path fill="#FFFFFF" d="M361.5-148.7c0.7-0.2,1.1-0.9,0.9-1.6c-0.2-0.7-0.9-1.1-1.6-0.9c-0.7,0.2-1.1,0.9-0.9,1.6
			C360.1-148.9,360.8-148.5,361.5-148.7z"/>
		<path fill="#FFFFFF" d="M361.5-142.9c-0.7-0.2-1.4,0.2-1.6,0.9c-0.2,0.7,0.2,1.4,0.9,1.6c0.7,0.2,1.4-0.2,1.6-0.9
			C362.6-142,362.2-142.7,361.5-142.9z"/>
		<path fill="#FFFFFF" d="M356.1-135.4c-0.5,0.5-0.5,1.3,0,1.8c0.5,0.5,1.3,0.5,1.8,0c0.5-0.5,0.5-1.3,0-1.8
			C357.4-135.9,356.6-135.9,356.1-135.4z"/>
		<path fill="#FFFFFF" d="M349.5-131.6c-0.7,0.2-1.1,0.9-0.9,1.6c0.2,0.7,0.9,1.1,1.6,0.9c0.7-0.2,1.1-0.9,0.9-1.6
			C350.9-131.3,350.2-131.8,349.5-131.6z"/>
		<path fill="#FFFFFF" d="M341.9-131.6c-0.7-0.2-1.4,0.2-1.6,0.9c-0.2,0.7,0.2,1.4,0.9,1.6c0.7,0.2,1.4-0.2,1.6-0.9
			C343-130.7,342.5-131.4,341.9-131.6z"/>
		<path fill="#FFFFFF" d="M333.4-135.4c-0.5,0.5-0.5,1.3,0,1.8c0.5,0.5,1.3,0.5,1.8,0c0.5-0.5,0.5-1.3,0-1.8
			C334.7-135.9,333.9-135.9,333.4-135.4z"/>
		<path fill="#FFFFFF" d="M329.8-142.9c-0.7,0.2-1.1,0.9-0.9,1.6c0.2,0.7,0.9,1.1,1.6,0.9c0.7-0.2,1.1-0.9,0.9-1.6
			C331.2-142.7,330.5-143.1,329.8-142.9z"/>
		<path fill="#FFFFFF" d="M329.8-148.7c0.7,0.2,1.4-0.2,1.6-0.9c0.2-0.7-0.2-1.4-0.9-1.6c-0.7-0.2-1.4,0.2-1.6,0.9
			C328.7-149.6,329.1-148.9,329.8-148.7z"/>
		<path fill="#FFFFFF" d="M348.2-148.3c-0.2-0.2-0.3-0.3-0.5-0.4l0,0l-12.4-9.4c-0.5-0.5-1.3-0.5-1.8,0c-0.5,0.5-0.5,1.3,0,1.8
			l9.4,12.4l0,0c0.1,0.2,0.3,0.3,0.4,0.5c1.4,1.4,3.6,1.4,5,0C349.5-144.7,349.5-146.9,348.2-148.3z"/>
		<path fill="#FFFFFF" d="M366-162.8l1.3-1.3l0.5,0.5c0.4,0.4,1,0.4,1.4,0l1.7-1.7c0.4-0.4,0.4-1,0-1.4l0,0l-4.1-4.1h0
			c-0.4-0.4-1-0.4-1.4,0l-1.7,1.7c-0.4,0.4-0.4,1,0,1.4l0.4,0.4l-1.3,1.3c-3.1-2.6-6.7-4.5-10.7-5.5c2.3-1.8,3.7-4.7,3.7-7.8
			c0-5.6-4.5-10.1-10.1-10.1c-5.6,0-10.1,4.5-10.1,10.1c0,3.2,1.5,6,3.7,7.8c-4,1-7.7,2.9-10.7,5.5l-1.3-1.3l0.4-0.4
			c0.4-0.4,0.4-1,0-1.4l-1.7-1.7c-0.4-0.4-1-0.4-1.4,0l0,0l-4.1,4.1l0,0c-0.4,0.4-0.4,1,0,1.4l1.7,1.7c0.4,0.4,1,0.4,1.4,0l0.5-0.5
			l1.3,1.3c-3.9,4.6-6.2,10.5-6.2,17c0,14.6,11.9,26.5,26.5,26.5c14.6,0,26.5-11.9,26.5-26.5C372.2-152.3,369.8-158.2,366-162.8z
			 M338.9-179.4c0-3.7,3-6.8,6.8-6.8c3.7,0,6.8,3,6.8,6.8c0,2.9-1.9,5.4-4.5,6.4v-4.3h0.6c0.5,0,1-0.4,1-1v-2.4c0-0.5-0.4-1-1-1h0
			h-5.8h0c-0.5,0-1,0.4-1,1v2.4c0,0.5,0.4,1,1,1h0.6v4.4C340.8-173.9,338.9-176.4,338.9-179.4z M345.7-125.8c-11,0-20-8.9-20-20
			c0-11,8.9-20,20-20c11,0,20,8.9,20,20C365.6-134.7,356.7-125.8,345.7-125.8z"/>
	</g>
</g>
<g>
	<circle fill="#871E5E" cx="364.7" cy="26.1" r="53.4"/>
	<g>
		<g id="Captions_2_">
		</g>
		<g id="Your_Icon_2_">
			<path fill="#FFFFFF" d="M352.7,5.2v-5c0-1.4-1.1-2.5-2.5-2.5c-1.4,0-2.5,1.1-2.5,2.5v5c0.8-0.1,1.7-0.2,2.5-0.2
				C351,5,351.9,5.1,352.7,5.2z"/>
			<path fill="#FFFFFF" d="M363.1,11.6l3.5-3.5c1-1,1-2.6,0-3.6c-1-1-2.6-1-3.6,0L359.5,8C360.9,9,362.1,10.2,363.1,11.6z"/>
			<path fill="#FFFFFF" d="M337.3,11.6c1-1.4,2.2-2.6,3.6-3.6l-3.5-3.5c-1-1-2.6-1-3.6,0c-1,1-1,2.6,0,3.6L337.3,11.6z"/>
			<path fill="#FFFFFF" d="M329.4,23.4h5c-0.1-0.8-0.2-1.7-0.2-2.5c0-0.9,0.1-1.7,0.2-2.5h-5c-1.4,0-2.5,1.1-2.5,2.5
				C326.9,22.3,328.1,23.4,329.4,23.4z"/>
			<path fill="#FFFFFF" d="M337.3,30.2l-3.5,3.5c-1,1-1,2.6,0,3.6c0.5,0.5,1.1,0.7,1.8,0.7c0.6,0,1.3-0.2,1.8-0.7l3.5-3.5
				C339.5,32.8,338.3,31.6,337.3,30.2z"/>
			<path fill="#FFFFFF" d="M339.3,20.9c0,0.9,0.1,1.7,0.3,2.5c0.3,1.1,0.7,2.2,1.3,3.2c0.9,1.4,2.1,2.7,3.6,3.6
				c0.2,0.1,0.4,0.2,0.6,0.4c1.9-2.3,4.4-4,7.3-5c1.6-3.9,4.2-7.3,7.5-9.7c-0.1-0.2-0.2-0.4-0.4-0.6c-0.9-1.4-2.1-2.7-3.6-3.6
				c-1-0.6-2-1-3.2-1.3c-0.8-0.2-1.7-0.3-2.5-0.3c-0.9,0-1.7,0.1-2.5,0.3c-1.1,0.3-2.2,0.7-3.2,1.3c-1.4,0.9-2.7,2.1-3.6,3.6
				c-0.6,1-1,2-1.3,3.2C339.4,19.2,339.3,20,339.3,20.9z"/>
			<path fill="#FFFFFF" d="M388.1,24.6c-3.2-5.1-8.8-8.2-14.8-8.2c-2.6,0-5.2,0.6-7.5,1.7c-0.8,0.4-1.6,0.8-2.4,1.3
				c-0.9,0.6-1.7,1.3-2.5,2c-2.3,2.2-4,5.1-4.8,8.4c-1.9,0.2-3.7,0.9-5.2,1.9c-1,0.7-1.8,1.5-2.5,2.5c-0.5,0.7-1,1.5-1.3,2.4
				c-0.5,1.2-0.8,2.6-0.8,4c0,6,4.9,10.9,10.9,10.9h28.4c0.4,0,0.7,0,1.1,0c7-0.5,12.5-6.5,12.5-13.5
				C399.3,31.4,394.5,25.7,388.1,24.6z M385.8,45.8h-28.4c-2.8,0-5.2-2.3-5.2-5.2c0-1.9,1-3.6,2.6-4.5c0.5-0.3,1-0.5,1.6-0.6
				c0.1,0,0.3,0,0.4-0.1c0.2,0,0.4,0,0.6,0c0.9,0,1.9,0.3,2.7,0.8c0.2,0.1,0.3,0.1,0.5,0.1c0,0,0,0,0,0c0,0,0,0,0,0c0.5,0,1-0.4,1-1
				c0-0.1,0-0.2,0-0.3c0-0.4-0.1-0.8-0.1-1.2c0-0.7,0.1-1.3,0.2-2c0-0.1,0-0.3,0.1-0.4c0.5-2.6,1.9-4.8,3.8-6.5
				c2.1-1.8,4.8-2.9,7.7-2.9c3.5,0,6.7,1.5,9,4.2c0.8,1,1.5,2.1,2,3.2c0.1,0.4,0.5,0.6,0.9,0.6c0,0,0,0,0.1,0l0.1,0
				c0.2,0,0.3,0,0.5,0c1.1,0,2.1,0.2,3.2,0.7c2.8,1.3,4.6,4.1,4.6,7.1C393.6,42.3,390.1,45.8,385.8,45.8z"/>
		</g>
	</g>
</g>
<g>
	<circle fill="#871E5E" cx="355.7" cy="-87" r="53.4"/>
	<path fill="#FFFFFF" d="M376.6-114.2c-18.2-0.6-33.2,6.1-33.2,6.1l0,34.1c-1.9-0.7-4.1-0.9-6.4-0.4c-4.9,1.2-8.2,5.3-7.2,9.3
		s5.7,6.1,10.7,4.9c4.7-1.1,7.8-4.9,7.4-8.6l0,0v-25.5c0,0,10.6-3.7,24.3-4.6v19l0,0c-1.8-0.7-4.1-0.9-6.3-0.3
		c-4.9,1.2-8.2,5.3-7.2,9.3c1,3.9,5.7,6.1,10.7,4.9c4.3-1,7.3-4.3,7.4-7.8l0,0C376.6-73.8,376.6-107.2,376.6-114.2z"/>
</g>
<g>
	<circle fill="#871E5E" cx="345.7" cy="-41.7" r="53.4"/>
	<g>
		<g>
			<path fill="#FFFFFF" d="M373.7-27.8c-4.2,2.6-9.1,4.1-14.3,4.1c-15,0-27.2-12.2-27.2-27.2c0-8.1,3.6-15.4,9.2-20.4
				c0.2-0.2,0.3-0.4,0.3-0.7c0-0.6-0.3-1.2-1.2-1c-14,3.3-24.6,15.9-24.6,30.9c0,17.5,14.2,31.8,31.8,31.8c11.8,0,22-6.4,27.5-16
				c0.1-0.2,0.2-0.4,0.2-0.6c0-0.6-0.5-1.1-1.1-1.1C374.1-28,373.9-27.9,373.7-27.8"/>
		</g>
		<path fill="#FFFFFF" d="M350.2-44.6c0.2,0.4,0.6,0.7,1.1,0.7h6.6c0.7,0,1.2-0.5,1.2-1.2s-0.5-1.2-1.2-1.2h-3.8l4.1-4.1
			c0.3-0.3,0.4-0.8,0.3-1.3c-0.2-0.4-0.6-0.7-1.1-0.7h-6.1c-0.7,0-1.2,0.5-1.2,1.2s0.5,1.2,1.2,1.2h3.3l-4.1,4.1
			C350.1-45.6,350-45,350.2-44.6z"/>
		<path fill="#FFFFFF" d="M348.5-42.4h-2.8l3.2-3.2c0.3-0.3,0.4-0.8,0.3-1.3c-0.2-0.4-0.6-0.7-1.1-0.7h-5.3c-0.7,0-1.2,0.5-1.2,1.2
			c0,0.7,0.5,1.2,1.2,1.2h2.4l-3.2,3.2c-0.3,0.3-0.4,0.8-0.3,1.3s0.6,0.7,1.1,0.7h5.7c0.7,0,1.2-0.5,1.2-1.2S349.1-42.4,348.5-42.4z
			"/>
		<path fill="#FFFFFF" d="M359.1-47.8c0.2,0.4,0.6,0.7,1.1,0.7h9c0.7,0,1.2-0.5,1.2-1.2c0-0.7-0.5-1.2-1.2-1.2H363l6.3-6.3
			c0.3-0.3,0.4-0.8,0.3-1.3c-0.2-0.4-0.6-0.7-1.1-0.7h-8.3c-0.7,0-1.2,0.5-1.2,1.2c0,0.7,0.5,1.2,1.2,1.2h5.5l-6.3,6.3
			C359-48.7,358.9-48.2,359.1-47.8z"/>
	</g>
</g>
</svg>
