<?xml version="1.0" encoding="utf-8"?>
<!-- Generator: Adobe Illustrator 17.1.0, SVG Export Plug-In . SVG Version: 6.00 Build 0)  -->
<!DOCTYPE svg PUBLIC "-//W3C//DTD SVG 1.1//EN" "http://www.w3.org/Graphics/SVG/1.1/DTD/svg11.dtd">
<svg version="1.1" id="Layer_1" xmlns="http://www.w3.org/2000/svg" xmlns:xlink="http://www.w3.org/1999/xlink" x="0px" y="0px"
	 viewBox="0 0 300 150" enable-background="new 0 0 300 150" xml:space="preserve">
<g id="nyt_x5F_exporter_x5F_info_1_" display="none">
	
		<text transform="matrix(4.489659e-11 1 -1 4.489659e-11 189.0674 114.7402)" display="inline" fill="#FFFFFF" font-family="'MyriadPro-Regular'" font-size="3.5583">&lt;nyt_prefs&gt;</text>
	
		<text transform="matrix(4.489659e-11 1 -1 4.489659e-11 184.7988 114.7402)" display="inline" fill="#FFFFFF" font-family="'MyriadPro-Regular'" font-size="3.5583">  &lt;nyt_prefix&gt;&lt;/nyt_prefix&gt;</text>
	
		<text transform="matrix(4.489659e-11 1 -1 4.489659e-11 180.5293 114.7402)" display="inline" fill="#FFFFFF" font-family="'MyriadPro-Regular'" font-size="3.5583">  &lt;nyt_suffix&gt;&lt;/nyt_suffix&gt;</text>
	
		<text transform="matrix(4.489659e-11 1 -1 4.489659e-11 176.2578 114.7402)" display="inline" fill="#FFFFFF" font-family="'MyriadPro-Regular'" font-size="3.5583">  &lt;nyt_base_path&gt;~/Dropbox/MyCloud/NounProject&lt;/nyt_base_path&gt;</text>
	
		<text transform="matrix(4.489659e-11 1 -1 4.489659e-11 171.9873 114.7402)" display="inline" fill="#FFFFFF" font-family="'MyriadPro-Regular'" font-size="3.5583">  &lt;nyt_scaling&gt;100&lt;/nyt_scaling&gt;</text>
	
		<text transform="matrix(4.489659e-11 1 -1 4.489659e-11 167.7178 114.7402)" display="inline" fill="#FFFFFF" font-family="'MyriadPro-Regular'" font-size="3.5583">  &lt;nyt_transparency&gt;true&lt;/nyt_transparency&gt;</text>
	
		<text transform="matrix(4.489659e-11 1 -1 4.489659e-11 163.4482 114.7402)" display="inline" fill="#FFFFFF" font-family="'MyriadPro-Regular'" font-size="3.5583">  &lt;nyt_embedImage&gt;false&lt;/nyt_embedImage&gt;</text>
	
		<text transform="matrix(4.489659e-11 1 -1 4.489659e-11 159.1787 114.7402)" display="inline" fill="#FFFFFF" font-family="'MyriadPro-Regular'" font-size="3.5583">  &lt;nyt_embedFont&gt;true&lt;/nyt_embedFont&gt;</text>
	
		<text transform="matrix(4.489659e-11 1 -1 4.489659e-11 154.9082 114.7402)" display="inline" fill="#FFFFFF" font-family="'MyriadPro-Regular'" font-size="3.5583">  &lt;nyt_trimEdges&gt;false&lt;/nyt_trimEdges&gt;</text>
	
		<text transform="matrix(4.489659e-11 1 -1 4.489659e-11 150.6387 114.7402)" display="inline" fill="#FFFFFF" font-family="'MyriadPro-Regular'" font-size="3.5583">  &lt;nyt_format&gt;SVG&lt;/nyt_format&gt;</text>
	
		<text transform="matrix(4.489659e-11 1 -1 4.489659e-11 146.3691 114.7402)" display="inline" fill="#FFFFFF" font-family="'MyriadPro-Regular'" font-size="3.5583">  &lt;nyt_artboards&gt;all&lt;/nyt_artboards&gt;</text>
	
		<text transform="matrix(4.489659e-11 1 -1 4.489659e-11 142.0996 114.7402)" display="inline" fill="#FFFFFF" font-family="'MyriadPro-Regular'" font-size="3.5583">  &lt;nyt_layers&gt;all&lt;/nyt_layers&gt;</text>
	
		<text transform="matrix(4.489659e-11 1 -1 4.489659e-11 137.8291 114.7402)" display="inline" fill="#FFFFFF" font-family="'MyriadPro-Regular'" font-size="3.5583">  &lt;nyt_exportArtboards&gt;false&lt;/nyt_exportArtboards&gt;</text>
	
		<text transform="matrix(4.489659e-11 1 -1 4.489659e-11 133.5596 114.7402)" display="inline" fill="#FFFFFF" font-family="'MyriadPro-Regular'" font-size="3.5583">  &lt;nyt_ignoreWarnings&gt;false&lt;/nyt_ignoreWarnings&gt;</text>
	
		<text transform="matrix(4.489659e-11 1 -1 4.489659e-11 129.29 114.7402)" display="inline" fill="#FFFFFF" font-family="'MyriadPro-Regular'" font-size="3.5583">&lt;/nyt_prefs&gt;</text>
</g>
<g>
	<circle fill="#E95E3F" cx="218.4" cy="-75" r="53.4"/>
	<g>
		<g id="Captions_1_">
		</g>
		<g id="Your_Icon_1_">
			<g>
				<path fill="#FFFFFF" d="M231.7-101.6c-6.8,0-11.1,3.3-13.6,6.3c-2.5-3-6.8-6.3-13.6-6.3c-11.6,0-19.4,10.8-19.4,20.8
					c0,14.6,28.1,34.2,31.3,36.4c0.5,0.4,1.1,0.5,1.7,0.5s1.2-0.2,1.7-0.5c3.2-2.2,31.3-21.8,31.3-36.4
					C251.2-90.9,243.4-101.6,231.7-101.6z M218.1-65.3c0,0-8.7-6-8.7-9.9c0-2.3,1.8-5.2,4.8-5.2c3,0,4,2.6,4,2.6s1-2.6,4-2.6
					c3,0,4.8,2.8,4.8,5.2C226.9-71.2,218.1-65.3,218.1-65.3z"/>
			</g>
		</g>
	</g>
</g>
<g>
	<circle fill="#E95E3F" cx="219.9" cy="76.7" r="53.4"/>
	<g>
		<path fill="#FFFFFF" d="M220.2,81.6c-0.3-0.4-0.6-0.7-1.1-1c-0.4-0.2-1-0.4-1.6-0.4c-0.6,0-1.1,0.1-1.6,0.4
			c-0.4,0.2-0.8,0.6-1.1,1c-0.3,0.4-0.5,0.9-0.6,1.4c-0.1,0.5-0.2,1-0.2,1.6c0,0.5,0.1,1,0.2,1.5c0.1,0.5,0.3,0.9,0.6,1.3
			c0.3,0.4,0.6,0.7,1.1,1c0.4,0.2,1,0.4,1.6,0.4c0.6,0,1.1-0.1,1.6-0.4c0.4-0.2,0.8-0.6,1.1-1c0.3-0.4,0.5-0.8,0.6-1.3
			c0.1-0.5,0.2-1,0.2-1.5c0-0.5-0.1-1.1-0.2-1.6C220.7,82.5,220.5,82,220.2,81.6z"/>
		<path fill="#FFFFFF" d="M231.1,65.5c-1.1-2.9-3.1-5.2-5.7-7c-1.2-0.8-2-1.8-2-3.4c0-0.5-0.1-1.2-0.4-1.4c-1-0.7-0.3-1.3,0-1.9
			c0.3-0.5,0.8-0.8,1.1-1.3c0.7-1,0.6-3.6-0.3-3.9c-1.7-0.6-1.3-1.6-0.9-2.7c0.9-2.3,0.5-3.1-1.7-4.2c-0.2-0.1-0.4-0.5-0.5-0.8
			c-0.1-0.4-0.2-0.8-0.3-1.2c-0.2-0.1-0.3-0.1-0.5-0.2c-0.2,0.4-0.4,0.7-0.6,1.1c-0.2,0.3-0.2,0.7-0.5,0.9c-1.7,1.2-2.1,2.2-1.5,4.2
			c0.3,0.9,0.4,1.9,0.6,2.8c-3.1,0.9-3.2,1.3-1.6,3.9c0.4,0.6,1.2,1.2,1.2,1.8c0.1,1.3,0.9,1.4,1.8,1.5c0.6,0.1,1.3,0.1,1.9,0.2
			c0,0.1,0,0.3,0,0.4c-1.4-0.2-2.8-0.3-4.4-0.5c-0.1,0.2-0.3,0.6-0.2,0.9c0.1,1.9-0.9,2.9-2.3,4c-1.3,1-2.6,2.1-3.7,3.4
			c-1.4,1.7-2.7,3.5-2.7,5.8c0.1,13.3,0.2,26.7,0.3,40c0,3.7,1.4,5.5,4.9,6.7c3.7,1.3,7.5,1.2,11.3,0.5c4.5-0.8,6.3-2.9,6.4-7.4
			c0.4-13.1,0.6-26.2,0.8-39.3C231.8,67.5,231.5,66.5,231.1,65.5z M220.2,90.6c-0.8,0.3-1.6,0.5-2.6,0.5c-1,0-1.8-0.2-2.6-0.5
			s-1.4-0.8-1.9-1.4c-0.5-0.6-0.9-1.3-1.2-2.1c-0.3-0.8-0.4-1.6-0.4-2.6c0-0.9,0.1-1.8,0.4-2.6c0.3-0.8,0.7-1.5,1.2-2.1
			c0.5-0.6,1.2-1.1,1.9-1.4c0.8-0.3,1.6-0.5,2.6-0.5c1,0,1.8,0.2,2.6,0.5c0.8,0.3,1.4,0.8,1.9,1.4c0.5,0.6,0.9,1.3,1.2,2.1
			c0.3,0.8,0.4,1.7,0.4,2.6c0,0.9-0.1,1.8-0.4,2.6c-0.3,0.8-0.7,1.5-1.2,2.1C221.6,89.8,221,90.2,220.2,90.6z M227.8,93.9h-4.5
			c0-0.4,0.1-0.7,0.2-0.9c0.1-0.3,0.2-0.5,0.4-0.7c0.2-0.2,0.4-0.4,0.6-0.6c0.2-0.2,0.5-0.4,0.8-0.5c0.1-0.1,0.3-0.2,0.4-0.3
			c0.2-0.1,0.3-0.2,0.4-0.3c0.1-0.1,0.2-0.2,0.3-0.4c0.1-0.1,0.1-0.3,0.1-0.5c0-0.3-0.1-0.5-0.3-0.7c-0.2-0.2-0.4-0.2-0.7-0.2
			c-0.2,0-0.3,0-0.5,0.1c-0.1,0.1-0.2,0.2-0.3,0.3c-0.1,0.1-0.1,0.3-0.2,0.5s0,0.3,0,0.5h-1.2c0-0.4,0-0.7,0.1-1
			c0.1-0.3,0.2-0.6,0.4-0.8c0.2-0.2,0.4-0.4,0.7-0.5c0.3-0.1,0.6-0.2,1-0.2c0.3,0,0.5,0,0.8,0.1c0.3,0.1,0.5,0.2,0.7,0.4
			c0.2,0.2,0.3,0.4,0.5,0.6c0.1,0.2,0.2,0.5,0.2,0.8c0,0.3,0,0.6-0.1,0.8s-0.2,0.4-0.4,0.6c-0.2,0.2-0.3,0.3-0.6,0.5
			c-0.2,0.1-0.4,0.3-0.6,0.4c-0.2,0.1-0.4,0.3-0.6,0.4s-0.4,0.3-0.5,0.6h2.9V93.9z"/>
	</g>
</g>
<g>
	<circle fill="#E95E3F" cx="216.9" cy="403.1" r="53.4"/>
	<g>
		<path fill="#FFFFFF" d="M199.6,389.8h7.1c0.3,0,0.5-0.3,0.5-0.7c0-0.4-0.2-0.7-0.5-0.7h-7.1c-0.3,0-0.5,0.3-0.5,0.7
			C199.1,389.5,199.3,389.8,199.6,389.8z"/>
		<path fill="#FFFFFF" d="M199.6,400.9h7.1c0.3,0,0.5-0.3,0.5-0.7c0-0.4-0.2-0.7-0.5-0.7h-7.1c-0.3,0-0.5,0.3-0.5,0.7
			C199.1,400.6,199.3,400.9,199.6,400.9z"/>
		<path fill="#FFFFFF" d="M210,394h-10.4c-0.3,0-0.5,0.3-0.5,0.7c0,0.4,0.2,0.7,0.5,0.7H210c0.3,0,0.5-0.3,0.5-0.7
			C210.5,394.3,210.2,394,210,394z"/>
		<path fill="#FFFFFF" d="M199.6,384.9H210c0.3,0,0.5-0.3,0.5-0.7c0-0.4-0.2-0.7-0.5-0.7h-10.4c-0.3,0-0.5,0.3-0.5,0.7
			C199.1,384.6,199.3,384.9,199.6,384.9z"/>
		<path fill="#FFFFFF" d="M210,405h-10.4c-0.3,0-0.5,0.3-0.5,0.7c0,0.4,0.2,0.7,0.5,0.7H210c0.3,0,0.5-0.3,0.5-0.7
			C210.5,405.3,210.2,405,210,405z"/>
		<path fill="#FFFFFF" d="M241.6,374.2h-49.4v3.9h0c0,12.3,0,47.7,0,47.7c0,3.5,2.8,6.3,6.3,6.3h32.4c3.5,0,6.3-2.8,6.3-6.3v-47.7
			h4.5V374.2z M233.1,408.8c-4.6-1.5-13.7-3.1-18.9,0c-3.8,2.3-12.7,1.9-17.9-0.6v-29.9h36.9V408.8z"/>
	</g>
</g>
<g>
	<circle fill="#E95E3F" cx="218.7" cy="527.9" r="53.4"/>
	<g id="Layer_1_2_">
		<g>
			<path fill="#FFFFFF" d="M238.6,511c4.1-0.2,7.2-3.8,7-7.9c-0.2-4.1-3.8-7.2-7.9-7c-4.1,0.2-7.2,3.8-7,7.9
				C231,508.1,234.5,511.2,238.6,511z"/>
			<path fill="#FFFFFF" d="M252.2,519.7c-0.7-1.6-2.6-2.2-4.1-1.5l-12.1,5.5l-1.7-10.5c-0.1-0.7-0.5-1.3-1-1.8
				c-0.3-0.7-0.8-1.2-1.5-1.5l-13.4-6.3c-0.8-0.4-1.7-0.4-2.5-0.1c-0.8,0.3-1.4,1-1.7,1.8l-4.4,12.5c-0.6,1.6,0.3,3.4,1.9,4
				c0.3,0.1,0.7,0.2,1,0.2c1.3,0,2.5-0.8,2.9-2.1l3.3-9.3l4.7,2.2l-10.3,13.1c-0.2,0.1-0.3,0.3-0.5,0.5L189,553.9
				c-1.1,1.3-1,3.3,0.3,4.4c0.6,0.5,1.3,0.8,2,0.8c0.9,0,1.7-0.4,2.3-1.1l20.3-23.3l9.5,7l-14.4,6.7c-1.6,0.7-2.2,2.6-1.5,4.1
				c0.5,1.1,1.6,1.8,2.8,1.8c0.4,0,0.9-0.1,1.3-0.3l19.2-9c1-0.5,1.7-1.4,1.8-2.5c0.1-1.1-0.4-2.2-1.3-2.8l-9.5-6.9l7.6-9.7l0.9,5.6
				c0.2,1,0.7,1.8,1.6,2.3c0.5,0.2,1,0.4,1.5,0.4c0.4,0,0.9-0.1,1.3-0.3l15.8-7.2C252.2,523.1,252.9,521.3,252.2,519.7z"/>
		</g>
	</g>
</g>
<g>
	<circle fill="#871E5E" cx="79.8" cy="-77.4" r="53.4"/>
	<g>
		<path fill="#FFFFFF" d="M76-83.1c0.7-0.2,1.1-0.9,0.9-1.6c-0.2-0.7-0.9-1.1-1.6-0.9c-0.7,0.2-1.1,0.9-0.9,1.6
			C74.6-83.3,75.3-82.9,76-83.1z"/>
		<path fill="#FFFFFF" d="M83.6-83.1c0.7,0.2,1.4-0.2,1.6-0.9c0.2-0.7-0.2-1.4-0.9-1.6c-0.7-0.2-1.4,0.2-1.6,0.9
			C82.5-84,82.9-83.3,83.6-83.1z"/>
		<path fill="#FFFFFF" d="M90.2-81.1c-0.5,0.5-0.5,1.3,0,1.8c0.5,0.5,1.3,0.5,1.8,0c0.5-0.5,0.5-1.3,0-1.8
			C91.5-81.6,90.7-81.6,90.2-81.1z"/>
		<path fill="#FFFFFF" d="M95.6-71.7c0.7-0.2,1.1-0.9,0.9-1.6c-0.2-0.7-0.9-1.1-1.6-0.9c-0.7,0.2-1.1,0.9-0.9,1.6
			C94.2-71.9,94.9-71.5,95.6-71.7z"/>
		<path fill="#FFFFFF" d="M95.6-65.9c-0.7-0.2-1.4,0.2-1.6,0.9c-0.2,0.7,0.2,1.4,0.9,1.6c0.7,0.2,1.4-0.2,1.6-0.9
			C96.7-65,96.3-65.7,95.6-65.9z"/>
		<path fill="#FFFFFF" d="M90.2-58.4c-0.5,0.5-0.5,1.3,0,1.8c0.5,0.5,1.3,0.5,1.8,0c0.5-0.5,0.5-1.3,0-1.8
			C91.5-58.9,90.7-58.9,90.2-58.4z"/>
		<path fill="#FFFFFF" d="M83.6-54.6c-0.7,0.2-1.1,0.9-0.9,1.6c0.2,0.7,0.9,1.1,1.6,0.9c0.7-0.2,1.1-0.9,0.9-1.6
			C85-54.3,84.3-54.8,83.6-54.6z"/>
		<path fill="#FFFFFF" d="M76-54.6c-0.7-0.2-1.4,0.2-1.6,0.9c-0.2,0.7,0.2,1.4,0.9,1.6c0.7,0.2,1.4-0.2,1.6-0.9
			C77.1-53.7,76.6-54.4,76-54.6z"/>
		<path fill="#FFFFFF" d="M67.5-58.4c-0.5,0.5-0.5,1.3,0,1.8c0.5,0.5,1.3,0.5,1.8,0c0.5-0.5,0.5-1.3,0-1.8
			C68.8-58.9,68-58.9,67.5-58.4z"/>
		<path fill="#FFFFFF" d="M63.9-65.9c-0.7,0.2-1.1,0.9-0.9,1.6c0.2,0.7,0.9,1.1,1.6,0.9c0.7-0.2,1.1-0.9,0.9-1.6
			C65.3-65.7,64.6-66.1,63.9-65.9z"/>
		<path fill="#FFFFFF" d="M63.9-71.7c0.7,0.2,1.4-0.2,1.6-0.9c0.2-0.7-0.2-1.4-0.9-1.6c-0.7-0.2-1.4,0.2-1.6,0.9
			C62.8-72.6,63.2-71.9,63.9-71.7z"/>
		<path fill="#FFFFFF" d="M82.2-71.3c-0.2-0.2-0.3-0.3-0.5-0.4l0,0l-12.4-9.4c-0.5-0.5-1.3-0.5-1.8,0c-0.5,0.5-0.5,1.3,0,1.8
			l9.4,12.4l0,0c0.1,0.2,0.3,0.3,0.4,0.5c1.4,1.4,3.6,1.4,5,0C83.6-67.7,83.6-69.9,82.2-71.3z"/>
		<path fill="#FFFFFF" d="M100.1-85.8l1.3-1.3l0.5,0.5c0.4,0.4,1,0.4,1.4,0l1.7-1.7c0.4-0.4,0.4-1,0-1.4l0,0l-4.1-4.1h0
			c-0.4-0.4-1-0.4-1.4,0l-1.7,1.7c-0.4,0.4-0.4,1,0,1.4l0.4,0.4L96.9-89c-3.1-2.6-6.7-4.5-10.7-5.5c2.3-1.8,3.7-4.7,3.7-7.8
			c0-5.6-4.5-10.1-10.1-10.1c-5.6,0-10.1,4.5-10.1,10.1c0,3.2,1.5,6,3.7,7.8c-4,1-7.7,2.9-10.7,5.5l-1.3-1.3l0.4-0.4
			c0.4-0.4,0.4-1,0-1.4l-1.7-1.7c-0.4-0.4-1-0.4-1.4,0l0,0l-4.1,4.1l0,0c-0.4,0.4-0.4,1,0,1.4l1.7,1.7c0.4,0.4,1,0.4,1.4,0l0.5-0.5
			l1.3,1.3c-3.9,4.6-6.2,10.5-6.2,17c0,14.6,11.9,26.5,26.5,26.5c14.6,0,26.5-11.9,26.5-26.5C106.3-75.3,103.9-81.2,100.1-85.8z
			 M73-102.4c0-3.7,3-6.8,6.8-6.8s6.8,3,6.8,6.8c0,2.9-1.9,5.4-4.5,6.4v-4.3h0.6c0.5,0,1-0.4,1-1v-2.4c0-0.5-0.4-1-1-1h0h-5.8h0
			c-0.5,0-1,0.4-1,1v2.4c0,0.5,0.4,1,1,1h0.6v4.4C74.9-96.9,73-99.4,73-102.4z M79.8-48.8c-11,0-20-8.9-20-20c0-11,8.9-20,20-20
			c11,0,20,8.9,20,20C99.7-57.7,90.8-48.8,79.8-48.8z"/>
	</g>
</g>
<g>
	<circle fill="#871E5E" cx="80.1" cy="529.6" r="53.4"/>
	<g>
		<g id="Captions_2_">
		</g>
		<g id="Your_Icon_2_">
			<path fill="#FFFFFF" d="M68.1,508.7v-5c0-1.4-1.1-2.5-2.5-2.5c-1.4,0-2.5,1.1-2.5,2.5v5c0.8-0.1,1.7-0.2,2.5-0.2
				C66.4,508.5,67.3,508.5,68.1,508.7z"/>
			<path fill="#FFFFFF" d="M78.5,515.1l3.5-3.5c1-1,1-2.6,0-3.6c-1-1-2.6-1-3.6,0l-3.5,3.5C76.3,512.5,77.5,513.7,78.5,515.1z"/>
			<path fill="#FFFFFF" d="M52.7,515.1c1-1.4,2.2-2.6,3.6-3.6l-3.5-3.5c-1-1-2.6-1-3.6,0c-1,1-1,2.6,0,3.6L52.7,515.1z"/>
			<path fill="#FFFFFF" d="M44.9,526.9h5c-0.1-0.8-0.2-1.7-0.2-2.5c0-0.9,0.1-1.7,0.2-2.5h-5c-1.4,0-2.5,1.1-2.5,2.5
				S43.5,526.9,44.9,526.9z"/>
			<path fill="#FFFFFF" d="M52.7,533.7l-3.5,3.5c-1,1-1,2.6,0,3.6c0.5,0.5,1.1,0.7,1.8,0.7c0.6,0,1.3-0.2,1.8-0.7l3.5-3.5
				C54.9,536.3,53.7,535.1,52.7,533.7z"/>
			<path fill="#FFFFFF" d="M54.7,524.4c0,0.9,0.1,1.7,0.3,2.5c0.3,1.1,0.7,2.2,1.3,3.2c0.9,1.4,2.1,2.7,3.6,3.6
				c0.2,0.1,0.4,0.2,0.6,0.4c1.9-2.3,4.4-4,7.3-5c1.6-3.9,4.2-7.3,7.5-9.7c-0.1-0.2-0.2-0.4-0.4-0.6c-0.9-1.4-2.1-2.7-3.6-3.6
				c-1-0.6-2-1-3.2-1.3c-0.8-0.2-1.7-0.3-2.5-0.3c-0.9,0-1.7,0.1-2.5,0.3c-1.1,0.3-2.2,0.7-3.2,1.3c-1.4,0.9-2.7,2.1-3.6,3.6
				c-0.6,1-1,2-1.3,3.2C54.8,522.7,54.7,523.5,54.7,524.4z"/>
			<path fill="#FFFFFF" d="M103.5,528c-3.2-5.1-8.8-8.2-14.8-8.2c-2.6,0-5.2,0.6-7.5,1.7c-0.8,0.4-1.6,0.8-2.4,1.3
				c-0.9,0.6-1.7,1.3-2.5,2c-2.3,2.2-4,5.1-4.8,8.4c-1.9,0.2-3.7,0.9-5.2,1.9c-1,0.7-1.8,1.5-2.5,2.5c-0.5,0.7-1,1.5-1.3,2.4
				c-0.5,1.2-0.8,2.6-0.8,4c0,6,4.9,10.9,10.9,10.9h28.4c0.4,0,0.7,0,1.1,0c7-0.5,12.5-6.5,12.5-13.5
				C114.7,534.8,110,529.2,103.5,528z M101.2,549.2H72.8c-2.8,0-5.2-2.3-5.2-5.2c0-1.9,1-3.6,2.6-4.5c0.5-0.3,1-0.5,1.6-0.6
				c0.1,0,0.3,0,0.4-0.1c0.2,0,0.4,0,0.6,0c0.9,0,1.9,0.3,2.7,0.8c0.2,0.1,0.3,0.1,0.5,0.1c0,0,0,0,0,0c0,0,0,0,0,0c0.5,0,1-0.4,1-1
				c0-0.1,0-0.2,0-0.3c0-0.4-0.1-0.8-0.1-1.2c0-0.7,0.1-1.3,0.2-2c0-0.1,0-0.3,0.1-0.4c0.5-2.6,1.9-4.8,3.8-6.5
				c2.1-1.8,4.8-2.9,7.7-2.9c3.5,0,6.7,1.5,9,4.2c0.8,1,1.5,2.1,2,3.2c0.1,0.4,0.5,0.6,0.9,0.6c0,0,0,0,0.1,0l0.1,0
				c0.2,0,0.3,0,0.5,0c1.1,0,2.1,0.2,3.2,0.7c2.8,1.3,4.6,4.1,4.6,7.1C109,545.7,105.5,549.2,101.2,549.2z"/>
		</g>
	</g>
</g>
<g>
	<circle fill="#871E5E" cx="80.1" cy="73.3" r="53.4"/>
	<path fill="#FFFFFF" d="M101,46.1c-18.2-0.6-33.2,6.1-33.2,6.1l0,34.1c-1.9-0.7-4.1-0.9-6.4-0.4c-4.9,1.2-8.2,5.3-7.2,9.3
		c1,3.9,5.7,6.1,10.7,4.9c4.7-1.1,7.8-4.9,7.4-8.6l0,0V66.1c0,0,10.6-3.7,24.3-4.6v19l0,0c-1.8-0.7-4.1-0.9-6.3-0.3
		c-4.9,1.2-8.2,5.3-7.2,9.3c1,3.9,5.7,6.1,10.7,4.9c4.3-1,7.3-4.3,7.4-7.8l0,0C101,86.6,101,53.1,101,46.1z"/>
</g>
<g>
	<circle fill="#871E5E" cx="80.1" cy="402.1" r="53.4"/>
	<g>
		<g>
			<path fill="#FFFFFF" d="M108.2,416c-4.2,2.6-9.1,4.1-14.3,4.1c-15,0-27.2-12.2-27.2-27.2c0-8.1,3.6-15.4,9.2-20.4
				c0.2-0.2,0.3-0.4,0.3-0.7c0-0.6-0.3-1.2-1.2-1c-14,3.3-24.6,15.9-24.6,30.9c0,17.5,14.2,31.8,31.8,31.8c11.8,0,22-6.4,27.5-16
				c0.1-0.2,0.2-0.4,0.2-0.6c0-0.6-0.5-1.1-1.1-1.1C108.6,415.8,108.3,415.9,108.2,416"/>
		</g>
		<path fill="#FFFFFF" d="M84.6,399.2c0.2,0.4,0.6,0.7,1.1,0.7h6.6c0.7,0,1.2-0.5,1.2-1.2c0-0.7-0.5-1.2-1.2-1.2h-3.8l4.1-4.1
			c0.3-0.3,0.4-0.8,0.3-1.3s-0.6-0.7-1.1-0.7h-6.1c-0.7,0-1.2,0.5-1.2,1.2s0.5,1.2,1.2,1.2h3.3l-4.1,4.1
			C84.5,398.3,84.4,398.8,84.6,399.2z"/>
		<path fill="#FFFFFF" d="M82.9,401.4h-2.8l3.2-3.2c0.3-0.3,0.4-0.8,0.3-1.3c-0.2-0.4-0.6-0.7-1.1-0.7h-5.3c-0.7,0-1.2,0.5-1.2,1.2
			c0,0.7,0.5,1.2,1.2,1.2h2.4l-3.2,3.2c-0.3,0.3-0.4,0.8-0.3,1.3s0.6,0.7,1.1,0.7h5.7c0.7,0,1.2-0.5,1.2-1.2
			C84.1,401.9,83.5,401.4,82.9,401.4z"/>
		<path fill="#FFFFFF" d="M93.5,396.1c0.2,0.4,0.6,0.7,1.1,0.7h9c0.7,0,1.2-0.5,1.2-1.2c0-0.7-0.5-1.2-1.2-1.2h-6.1l6.3-6.3
			c0.3-0.3,0.4-0.8,0.3-1.3c-0.2-0.4-0.6-0.7-1.1-0.7h-8.3c-0.7,0-1.2,0.5-1.2,1.2c0,0.7,0.5,1.2,1.2,1.2h5.5l-6.3,6.3
			C93.4,395.1,93.3,395.6,93.5,396.1z"/>
	</g>
</g>
</svg>
